<svg width="312" height="267" viewBox="0 0 312 267" fill="none" xmlns="http://www.w3.org/2000/svg">
<path fill-rule="evenodd" clip-rule="evenodd" d="M261.055 99.1879C281.243 99.1879 297.609 82.7931 297.609 62.5691C297.609 42.3451 281.243 25.9503 261.055 25.9503C240.867 25.9503 224.501 42.3451 224.501 62.5691C224.501 82.7931 240.867 99.1879 261.055 99.1879ZM261.055 113.605C289.191 113.605 312 90.7553 312 62.5691C312 34.3829 289.191 11.5334 261.055 11.5334C232.919 11.5334 210.11 34.3829 210.11 62.5691C210.11 90.7553 232.919 113.605 261.055 113.605Z" fill="white"/>
<path fill-rule="evenodd" clip-rule="evenodd" d="M64.4721 252.583C81.6398 252.583 95.557 238.641 95.557 221.443C95.557 204.244 81.6398 190.302 64.4721 190.302C47.3044 190.302 33.3872 204.244 33.3872 221.443C33.3872 238.641 47.3044 252.583 64.4721 252.583ZM64.4721 267C89.5878 267 109.948 246.603 109.948 221.443C109.948 196.282 89.5878 175.885 64.4721 175.885C39.3564 175.885 18.9961 196.282 18.9961 221.443C18.9961 246.603 39.3564 267 64.4721 267Z" fill="white"/>
<path fill-rule="evenodd" clip-rule="evenodd" d="M245.513 205.873C252.349 205.873 257.89 200.322 257.89 193.474C257.89 186.627 252.349 181.076 245.513 181.076C238.678 181.076 233.137 186.627 233.137 193.474C233.137 200.322 238.678 205.873 245.513 205.873ZM245.513 217.406C258.707 217.406 269.403 206.691 269.403 193.474C269.403 180.257 258.707 169.542 245.513 169.542C232.32 169.542 221.624 180.257 221.624 193.474C221.624 206.691 232.32 217.406 245.513 217.406Z" fill="white"/>
<path fill-rule="evenodd" clip-rule="evenodd" d="M147.365 160.315C157.539 160.315 165.786 152.053 165.786 141.862C165.786 131.67 157.539 123.408 147.365 123.408C137.192 123.408 128.944 131.67 128.944 141.862C128.944 152.053 137.192 160.315 147.365 160.315ZM147.365 173.002C164.533 173.002 178.45 159.06 178.45 141.862C178.45 124.663 164.533 110.721 147.365 110.721C130.197 110.721 116.28 124.663 116.28 141.862C116.28 159.06 130.197 173.002 147.365 173.002Z" fill="white"/>
<path fill-rule="evenodd" clip-rule="evenodd" d="M140.17 44.9806C147.005 44.9806 152.546 39.4296 152.546 32.5821C152.546 25.7346 147.005 20.1836 140.17 20.1836C133.334 20.1836 127.793 25.7346 127.793 32.5821C127.793 39.4296 133.334 44.9806 140.17 44.9806ZM140.17 56.5141C153.363 56.5141 164.059 45.7994 164.059 32.5821C164.059 19.3649 153.363 8.65015 140.17 8.65015C126.976 8.65015 116.28 19.3649 116.28 32.5821C116.28 45.7994 126.976 56.5141 140.17 56.5141Z" fill="white"/>
<path fill-rule="evenodd" clip-rule="evenodd" d="M23.8893 36.3305C30.7246 36.3305 36.2657 30.7795 36.2657 23.932C36.2657 17.0845 30.7246 11.5335 23.8893 11.5335C17.054 11.5335 11.5129 17.0845 11.5129 23.932C11.5129 30.7795 17.054 36.3305 23.8893 36.3305ZM23.8893 47.8639C37.083 47.8639 47.7786 37.1492 47.7786 23.932C47.7786 10.7147 37.083 0 23.8893 0C10.6956 0 0 10.7147 0 23.932C0 37.1492 10.6956 47.8639 23.8893 47.8639Z" fill="white"/>
<path fill-rule="evenodd" clip-rule="evenodd" d="M45.4846 44.9891C48.1823 42.2866 52.556 42.2866 55.2537 44.9891L128.648 118.515C131.346 121.217 131.346 125.599 128.648 128.301C125.951 131.004 121.577 131.004 118.879 128.301L45.4846 54.7755C42.787 52.0731 42.787 47.6915 45.4846 44.9891Z" fill="white"/>
<path fill-rule="evenodd" clip-rule="evenodd" d="M141.447 61.167C145.24 60.7589 148.646 63.5085 149.053 67.3085L154.172 115.048C154.579 118.848 151.834 122.26 148.041 122.668C144.248 123.076 140.843 120.326 140.435 116.526L135.317 68.7866C134.909 64.9866 137.654 61.5752 141.447 61.167Z" fill="white"/>
<path fill-rule="evenodd" clip-rule="evenodd" d="M213.049 97.7617C215.107 100.98 214.171 105.26 210.959 107.322L174.118 130.965C170.905 133.027 166.633 132.089 164.575 128.871C162.517 125.653 163.453 121.373 166.665 119.311L203.506 95.6676C206.719 93.606 210.991 94.5436 213.049 97.7617Z" fill="white"/>
<path fill-rule="evenodd" clip-rule="evenodd" d="M221.564 178.785C219.965 182.256 215.861 183.77 212.397 182.169L167.497 161.408C164.033 159.807 162.521 155.695 164.119 152.225C165.718 148.755 169.822 147.241 173.286 148.842L218.186 169.602C221.65 171.204 223.162 175.315 221.564 178.785Z" fill="white"/>
<path fill-rule="evenodd" clip-rule="evenodd" d="M131.726 156.326C134.561 158.883 134.79 163.259 132.237 166.099L112.978 187.527C110.425 190.367 106.058 190.596 103.222 188.039C100.387 185.482 100.158 181.106 102.711 178.266L121.97 156.838C124.523 153.998 128.891 153.769 131.726 156.326Z" fill="white"/>
</svg>
